<svg viewBox="7.972972972972974 8.630000000000003 83.78378378378378 83.7" version="1.1" xmlns="http://www.w3.org/2000/svg" style="max-height: 500px" width="83.78378378378378" height="83.7">
 <g>
  <path d="m22.918 47.918h37.5c1.1523 0 2.082-0.93359 2.082-2.082 0-1.1484-0.92969-2.082-2.082-2.082l-37.5-0.003906c-1.1484 0-2.082 0.93359-2.082 2.082 0 1.1484 0.93359 2.082 2.082 2.082z"/>
  <path d="m22.918 58.332h37.5c1.1523 0 2.082-0.93359 2.082-2.082s-0.92969-2.082-2.082-2.082h-37.5c-1.1484 0-2.082 0.93359-2.082 2.082s0.93359 2.082 2.082 2.082z"/>
  <path d="m50 75h-27.082c-1.1484 0-2.082 0.93359-2.082 2.082 0 1.1484 0.93359 2.082 2.082 2.082h27.082c1.1484 0 2.082-0.93359 2.082-2.082 0-1.1484-0.93359-2.082-2.082-2.082z"/>
  <path d="m87.91 74.363c-0.26562-0.33203-0.41016-0.74219-0.41016-1.168v-2.6836c0-5.4922-3.3672-10.211-8.1484-12.207 0.52734-0.91797 0.85547-1.9648 0.85547-3.1016 0-3.0898-2.2578-5.6445-5.207-6.1445v-24.059c0-4.4375-3.4688-8.0859-8-8.3125h-0.015625c-0.35547-4.7539-3.0977-8.3555-6.5703-8.3555-3.4766 0-6.207 3.5898-6.5703 8.332h-1.7656c-1.1484 0-2.082 0.93359-2.082 2.082 0 1.1484 0.93359 2.082 2.082 2.082h10.238c-0.52344 1.3047-1.3047 2.082-1.9023 2.082-1.1523 0-2.082 0.93359-2.082 2.082 0 1.1484 0.92969 2.082 2.082 2.082 2.9336 0 5.3438-2.5742 6.2422-6.2305h0.007812 0.22656c2.2109 0.10938 3.9414 1.9297 3.9414 4.1445v6.25l-58.332 0.007813v-6.25c0-2.2969 1.8672-4.168 4.168-4.168h4.168c1.1484 0 2.082-0.93359 2.082-2.082 0-1.1484-0.93359-2.082-2.082-2.082h-0.32813c0.28125-2.5391 1.543-4.168 2.4141-4.168 0.98438 0 2.4766 2.0781 2.4766 5.207 0 3.1328-1.4883 5.207-2.4766 5.207-1.1484 0-2.082 0.93359-2.082 2.082 0 1.1484 0.93359 2.082 2.082 2.082 2.9414 0 5.3516-2.582 6.2461-6.25h0.003906 10.418c1.1484 0 2.082-0.93359 2.082-2.082 0-1.1484-0.93359-2.082-2.082-2.082h-0.32812c0.28125-2.5391 1.543-4.168 2.4141-4.168 0.98438 0 2.4766 2.0781 2.4766 5.207 0 3.1328-1.4883 5.207-2.4766 5.207-1.1484 0-2.082 0.93359-2.082 2.082 0 1.1484 0.93359 2.082 2.082 2.082 3.7266 0 6.6406-4.1172 6.6406-9.375 0-5.2578-2.918-9.375-6.6406-9.375-3.4727 0-6.207 3.5898-6.5703 8.332h-5.6133c-0.35938-4.7422-3.0977-8.332-6.5703-8.332s-6.2227 3.6094-6.5703 8.3672c-4.4453 0.17188-8.0117 3.8164-8.0117 8.3008v58.332c0 4.5977 3.7383 8.332 8.332 8.332h50c1.3086 0 2.6016-0.32422 3.7656-0.91406 1.0586 0.56641 2.2461 0.91406 3.5273 0.91406 3.7188 0 6.8008-2.707 7.4219-6.25h4.8789c1.9531 0 3.6953-1.0938 4.5469-2.8555 0.84766-1.7617 0.61719-3.8047-0.60547-5.3359l-2.2891-2.8633zm-27.492-61.863c0.87891 0 2.1484 1.6562 2.418 4.2344-0.11328-0.019531-0.21484-0.066406-0.33203-0.066406h-4.4961c0.28125-2.5391 1.543-4.168 2.4141-4.168zm15.625 42.703c0 1.1484-0.93359 2.082-2.082 2.082-1.1484 0-2.082-0.93359-2.082-2.082s0.93359-2.082 2.082-2.082c1.1484 0 2.082 0.93359 2.082 2.082zm-59.375 32.297c-2.2969 0-4.168-1.8672-4.168-4.168v-47.918h58.332v14.406c-1.8594 1.082-3.125 3.0781-3.125 5.3828 0 1.1328 0.32812 2.1836 0.85547 3.1016-3.0742 1.2852-5.5508 3.6953-6.9336 6.7109-0.34766-0.25391-0.75-0.43359-1.2109-0.43359h-37.5c-1.1484 0-2.082 0.93359-2.082 2.082 0 1.1484 0.93359 2.082 2.082 2.082h37.5c0.046875 0 0.085937-0.023438 0.13672-0.027344-0.078126 0.58594-0.13672 1.1797-0.13672 1.7891v2.6836c0 0.42188-0.14453 0.83594-0.40625 1.1641l-2.2891 2.8633c-1.2227 1.5273-1.4531 3.5742-0.60547 5.3359 0.84766 1.7617 2.5898 2.8555 4.5469 2.8555h4.8789c0.12109 0.70703 0.35156 1.3711 0.66016 1.9961-0.17969 0.023438-0.35156 0.085938-0.52734 0.085938zm57.289 0c-1.4062 0-2.6133-0.85938-3.1211-2.082h6.2461c-0.51172 1.2227-1.7148 2.082-3.1211 2.082zm13.09-6.7461c-0.089844 0.18359-0.30859 0.49609-0.79297 0.49609h-24.594c-0.48047 0-0.70312-0.30859-0.79297-0.49609-0.085938-0.18359-0.19531-0.55469 0.10547-0.92969l2.293-2.8672c0.84766-1.0664 1.3164-2.4023 1.3164-3.7617v-2.6836c0-4.9922 4.0664-9.0586 9.0586-9.0586h0.63281c4.9922 0 9.0586 4.0664 9.0586 9.0586v2.6836c0 1.3594 0.46875 2.6953 1.3203 3.7656l2.2891 2.8633c0.30078 0.375 0.19531 0.74219 0.10547 0.92969z"/>
 </g>
<text fill="#000000" font-family="Arbeit Regular, Helvetica, Arial-Unicode, Arial, Sans-serif" font-weight="bold" font-size="5.0" y="117.5" x="0.0">Created by kumakamu</text><text fill="#000000" font-family="Arbeit Regular, Helvetica, Arial-Unicode, Arial, Sans-serif" font-weight="bold" font-size="5.0" y="122.5" x="0.0">from Noun Project</text></svg>